<svg xmlns="http://www.w3.org/2000/svg" style="display:none;">
<symbol id="icon-mch-tracking">
<path fill-rule="evenodd" clip-rule="evenodd" d="M34.7612 2.66667L63.2221 30.2133C63.4685 30.4478 63.6641 30.7274 63.7977 31.0357C63.9312 31.3441 64 31.675 64 32.0093C64 32.3436 63.9312 32.6746 63.7977 32.9829C63.6641 33.2913 63.4685 33.5708 63.2221 33.8053L53.7618 42.9547L53.4282 43.2773L32.0011 64L20.3459 52.7467L0.760735 33.8053C0.273239 33.3264 0 32.6814 0 32.0093C0 31.3373 0.273239 30.6922 0.760735 30.2133L10.563 20.7333L32.0011 0L34.7612 2.66667ZM13.3281 29.8054V28.2703H12.2441V29.8054H11.0898V30.6433H12.2441V34.575C12.2441 35.114 12.3672 35.53 12.6133 35.823C12.8594 36.116 13.2246 36.2625 13.709 36.2625C13.9785 36.2625 14.2559 36.2234 14.541 36.1453V35.2664C14.3223 35.3132 14.1504 35.3367 14.0254 35.3367C13.7715 35.3367 13.5918 35.2742 13.4863 35.1492C13.3809 35.0203 13.3281 34.8289 13.3281 34.575V30.6433H14.5117V29.8054H13.3281ZM18.3145 30.7371C18.5059 30.7371 18.6836 30.7507 18.8477 30.7781V29.7703C18.7383 29.7156 18.5781 29.6882 18.3672 29.6882C17.7148 29.6882 17.2109 29.9714 16.8555 30.5378L16.8379 29.8054H15.7832V36.1453H16.8672V31.6453C17.1211 31.0398 17.6035 30.7371 18.3145 30.7371ZM23.377 35.4773C23.416 35.7976 23.4668 36.0203 23.5293 36.1453H24.666V36.0515C24.5176 35.7078 24.4434 35.2449 24.4434 34.6628V31.7449C24.4277 31.1042 24.2129 30.6023 23.7988 30.239C23.3848 29.8718 22.8125 29.6882 22.082 29.6882C21.6211 29.6882 21.1973 29.7742 20.8105 29.946C20.4277 30.1179 20.123 30.3523 19.8965 30.6492C19.6738 30.9421 19.5625 31.2468 19.5625 31.5632H20.6523C20.6523 31.2859 20.7832 31.0496 21.0449 30.8542C21.3066 30.6589 21.6309 30.5613 22.0176 30.5613C22.459 30.5613 22.793 30.6746 23.0195 30.9011C23.2461 31.1238 23.3594 31.4246 23.3594 31.8035V32.3015H22.3047C21.3945 32.3015 20.6875 32.4851 20.1836 32.8523C19.6836 33.2156 19.4336 33.7273 19.4336 34.3875C19.4336 34.9304 19.6328 35.3796 20.0312 35.7351C20.4336 36.0867 20.9473 36.2625 21.5723 36.2625C22.2715 36.2625 22.873 36.0007 23.377 35.4773ZM22.6973 35.0554C22.3926 35.2312 22.0703 35.3191 21.7305 35.3191C21.375 35.3191 21.084 35.2234 20.8574 35.032C20.6309 34.8406 20.5176 34.575 20.5176 34.2351C20.5176 33.4578 21.1816 33.0691 22.5098 33.0691H23.3594V34.3699C23.2227 34.6511 23.002 34.8796 22.6973 35.0554ZM29.6992 35.0261C29.4102 35.2605 29.0723 35.3777 28.6855 35.3777C28.127 35.3777 27.6973 35.1804 27.3965 34.7859C27.0957 34.3914 26.9453 33.8289 26.9453 33.0984V32.8933C26.9453 32.1433 27.0957 31.571 27.3965 31.1765C27.7012 30.7781 28.1289 30.5789 28.6797 30.5789C29.0898 30.5789 29.4336 30.7117 29.7109 30.9773C29.9922 31.239 30.1484 31.575 30.1797 31.9851H31.2051C31.1738 31.3054 30.9219 30.7527 30.4492 30.3269C29.9805 29.9011 29.3906 29.6882 28.6797 29.6882C28.1016 29.6882 27.5996 29.821 27.1738 30.0867C26.752 30.3523 26.4277 30.7253 26.2012 31.2058C25.9746 31.6863 25.8613 32.2351 25.8613 32.8523V33.0339C25.8613 34.0339 26.1152 34.823 26.623 35.4011C27.1348 35.9753 27.8223 36.2625 28.6855 36.2625C29.1152 36.2625 29.5215 36.1648 29.9043 35.9695C30.291 35.7742 30.5996 35.5125 30.8301 35.1843C31.0605 34.8562 31.1855 34.5105 31.2051 34.1472H30.1797C30.1484 34.4988 29.9883 34.7917 29.6992 35.0261ZM33.5137 33.9187L34.1934 33.2097L36.4023 36.1453H37.6738L34.9199 32.4539L37.3867 29.8054H36.0684L34.0938 31.8914L33.5137 32.5886V27.1453H32.4297V36.1453H33.5137V33.9187ZM38.5996 36.1453H39.6836V29.8054H38.5996V36.1453ZM38.6699 27.6785C38.5645 27.7996 38.5117 27.948 38.5117 28.1238C38.5117 28.2996 38.5645 28.446 38.6699 28.5632C38.7793 28.6804 38.9395 28.739 39.1504 28.739C39.3613 28.739 39.5215 28.6804 39.6309 28.5632C39.7402 28.446 39.7949 28.2996 39.7949 28.1238C39.7949 27.948 39.7402 27.7996 39.6309 27.6785C39.5215 27.5574 39.3613 27.4968 39.1504 27.4968C38.9395 27.4968 38.7793 27.5574 38.6699 27.6785ZM42.4844 30.6023L42.4492 29.8054H41.4238V36.1453H42.5078V31.6277C42.6562 31.323 42.8633 31.0769 43.1289 30.8894C43.3945 30.7019 43.7031 30.6082 44.0547 30.6082C44.4883 30.6082 44.8066 30.7175 45.0098 30.9363C45.2168 31.155 45.3223 31.4929 45.3262 31.95V36.1453H46.4102V31.9558C46.3984 30.4441 45.7227 29.6882 44.3828 29.6882C43.6016 29.6882 42.9688 29.9929 42.4844 30.6023ZM48.4727 30.5671C48.0156 31.1492 47.7871 31.9343 47.7871 32.9226C47.7871 33.9539 48.0156 34.7683 48.4727 35.366C48.9336 35.9636 49.5352 36.2625 50.2773 36.2625C51.0273 36.2625 51.6191 36.0125 52.0527 35.5125V36.0574C52.0527 36.5964 51.9043 37.0144 51.6074 37.3113C51.3145 37.6082 50.9043 37.7566 50.377 37.7566C49.7051 37.7566 49.1367 37.4695 48.6719 36.8953L48.1094 37.5457C48.3398 37.8855 48.6738 38.1531 49.1113 38.3484C49.5488 38.5437 49.9961 38.6414 50.4531 38.6414C51.2734 38.6414 51.9258 38.405 52.4102 37.9324C52.8984 37.4597 53.1426 36.8132 53.1426 35.9929V29.8054H52.1523L52.0996 30.5085C51.666 29.9617 51.0625 29.6882 50.2891 29.6882C49.5352 29.6882 48.9297 29.9812 48.4727 30.5671ZM49.3164 34.7332C49.0234 34.323 48.877 33.7605 48.877 33.0457C48.877 32.241 49.0254 31.6335 49.3223 31.2234C49.6191 30.8132 50.0312 30.6082 50.5586 30.6082C51.2227 30.6082 51.7207 30.9109 52.0527 31.5164V34.4109C51.7324 35.032 51.2305 35.3425 50.5469 35.3425C50.0195 35.3425 49.6094 35.1394 49.3164 34.7332Z" />

</symbol>
</svg>
